<?xml version="1.0" standalone="no"?><!DOCTYPE svg PUBLIC "-//W3C//DTD SVG 1.1//EN" "http://www.w3.org/Graphics/SVG/1.1/DTD/svg11.dtd"><svg t="1574902087118" class="icon" viewBox="0 0 1024 1024" version="1.1" xmlns="http://www.w3.org/2000/svg" p-id="32407" xmlns:xlink="http://www.w3.org/1999/xlink" width="200" height="200"><defs><style type="text/css"></style></defs><path d="M793.08079 510.561759a45.334861 45.334861 0 0 1-46.545031 45.102135l-188.670285 0.511995v188.181562a46.545031 46.545031 0 0 1-46.545031 46.545032 45.311588 45.311588 0 0 1-45.102136-46.545032l-0.511995-187.925564-188.856465 0.511995a46.545031 46.545031 0 0 1 0-93.090062h188.62374l-0.535268-189.321916a46.545031 46.545031 0 0 1 93.090063 0v189.345188h188.647012a46.545031 46.545031 0 0 1 46.405396 46.684667zM511.995345 1024a508.178653 508.178653 0 0 1-293.233697-93.299515 46.405396 46.405396 0 0 1-34.210598-44.683231l-0.418906-4.305415a46.405396 46.405396 0 0 1 80.592722-31.557531 420.534359 420.534359 0 1 0-132.653339-160.161453l-7.540295 7.540295a46.545031 46.545031 0 0 1 29.020827 43.077426l0.442177 4.328688a46.428669 46.428669 0 0 1-91.088626 12.776611A511.995345 511.995345 0 1 1 511.995345 1024z" p-id="32408"></path></svg>