<?xml version="1.0" standalone="no"?><!DOCTYPE svg PUBLIC "-//W3C//DTD SVG 1.1//EN" "http://www.w3.org/Graphics/SVG/1.1/DTD/svg11.dtd"><svg t="1574902664237" class="icon" viewBox="0 0 1024 1024" version="1.1" xmlns="http://www.w3.org/2000/svg" p-id="2298" xmlns:xlink="http://www.w3.org/1999/xlink" width="200" height="200"><defs><style type="text/css"></style></defs><path d="M312.13091 310.48787a46.545021 46.545021 0 0 1 65.814659 0l133.816935 133.933298 133.58421-133.351485a46.312296 46.312296 0 0 1 65.628479 0 45.381395 45.381395 0 0 1-0.9309 64.813942l-133.11876 133.77039 133.11876 133.118759a46.545021 46.545021 0 0 1 0 65.81466 45.497758 45.497758 0 0 1-64.930304-1.023991l-133.11876-132.653309-133.118759 133.910025a46.568293 46.568293 0 1 1-65.931022-65.81466L446.36675 509.677287l-134.23584-133.49112a46.545021 46.545021 0 0 1 0-65.698297zM511.995229 1023.999767a508.248355 508.248355 0 0 1-293.349994-93.299494 46.405386 46.405386 0 0 1-34.21059-44.68322l-0.418905-4.305414a46.405386 46.405386 0 0 1 80.592703-31.557525 420.534263 420.534263 0 1 0-132.653309-160.161416l-7.540293 7.540293a46.545021 46.545021 0 0 1 29.02082 43.077417l0.442178 4.328687a46.428658 46.428658 0 0 1-91.088606 12.776608A511.995229 511.995229 0 1 1 511.995229 1023.999767z" p-id="2299"></path></svg>