<?xml version="1.0" standalone="no"?><!DOCTYPE svg PUBLIC "-//W3C//DTD SVG 1.1//EN" "http://www.w3.org/Graphics/SVG/1.1/DTD/svg11.dtd"><svg t="1574902797522" class="icon" viewBox="0 0 1024 1024" version="1.1" xmlns="http://www.w3.org/2000/svg" p-id="2534" xmlns:xlink="http://www.w3.org/1999/xlink" width="200" height="200"><defs><style type="text/css"></style></defs><path d="M311.060445 479.21368l153.458968 153.598604 249.015918-247.596295a46.545031 46.545031 0 0 1 65.814675 0 45.311588 45.311588 0 0 1-1.023991 64.790684L506.200489 722.504559a45.265043 45.265043 0 0 1-7.167935 10.775175 43.589422 43.589422 0 0 1-35.234589 12.497341 46.289034 46.289034 0 0 1-33.093517-13.614422 44.21778 44.21778 0 0 1-6.679212-10.030454l-178.872556-177.15039a46.545031 46.545031 0 0 1 65.907765-65.768129zM511.995345 1024a508.178653 508.178653 0 0 1-293.233697-93.299515 46.405396 46.405396 0 0 1-34.210598-44.683231l-0.418906-4.328688a46.545031 46.545031 0 0 1 80.592722-31.534258 420.534359 420.534359 0 1 0-132.653339-160.161453l-7.540295 7.540295a46.545031 46.545031 0 0 1 29.020827 43.077426l0.442177 4.328688a46.428669 46.428669 0 0 1-91.088626 12.776611A511.995345 511.995345 0 1 1 511.995345 1024z" p-id="2535"></path></svg>