<?xml version="1.0" standalone="no"?><!DOCTYPE svg PUBLIC "-//W3C//DTD SVG 1.1//EN" "http://www.w3.org/Graphics/SVG/1.1/DTD/svg11.dtd"><svg t="1574299820810" class="icon" viewBox="0 0 1024 1024" version="1.1" xmlns="http://www.w3.org/2000/svg" p-id="1071" xmlns:xlink="http://www.w3.org/1999/xlink" width="200" height="200"><defs><style type="text/css"></style></defs><path d="M744.865754 325.58879l-466.940837 0.44187a46.512684 46.512684 0 0 1 0-93.025368L744.865754 232.563421a46.512684 46.512684 0 1 1 0 93.025369z m0 186.050737l-466.940837 0.418614a46.512684 46.512684 0 0 1 0-93.025369L744.865754 418.614158a46.512684 46.512684 0 0 1 0 93.025369z m164.724671 178.329631c-0.720947 0.488383-1.302355 1.162817-2.046558 1.604688L596.908905 1003.046036a46.512684 46.512684 0 0 1-57.071063 17.16318c-0.279076 0-0.51164-0.325589-0.790716-0.44187a46.931298 46.931298 0 0 1-12.139811-8.046695c-0.813972-0.720947-1.860507-1.000023-2.651223-1.767482a47.512707 47.512707 0 0 1-2.767504-4.139629 50.908133 50.908133 0 0 1-3.62799-5.488496 45.373123 45.373123 0 0 1-6.232699-28.209943l-0.302333-227.912153h0.302333v-46.512684a93.025368 93.025368 0 0 1 93.025368-93.025369h49.419727v-0.139538l183.097182-0.232563-0.302333-427.916695c-1.837251-68.978311-21.767936-82.327451-92.653267-82.327451l42.489337-1.046536-537.733142 0.302333 30.093706 0.837228c-74.629602 0-93.025368 13.953805-93.025368 93.025368l0.604665-93.723058h-1.000023l0.372101 837.228316h0.627922l-0.604665-94.560287c0 79.071563 18.395767 93.025368 93.025368 93.025368l-56.791987 1.395381L369.764212 930.253685a46.512684 46.512684 0 0 1 0 93.025368l-137.212419 0.232564V1023.279053h-46.512684a93.025368 93.025368 0 0 1-93.025369-93.025368v-49.419727L92.688152 142.445096h0.325588V93.025368A92.792805 92.792805 0 0 1 181.922736 0.418614L837.58879 0a92.816061 92.816061 0 0 1 92.234653 88.955509l0.418614 551.73346a45.861507 45.861507 0 0 1-20.651632 49.303445zM604.281166 697.690264v83.560037l0.558152-82.885603 93.862597-0.627922c-78.094797 0-94.048648 18.18646-94.397493 90.699735v75.304035l165.887488-166.329358z m232.563421-604.664896h-0.162795l0.186051 31.140243V93.025368z" p-id="1072"></path></svg>