<?xml version="1.0" standalone="no"?><!DOCTYPE svg PUBLIC "-//W3C//DTD SVG 1.1//EN" "http://www.w3.org/Graphics/SVG/1.1/DTD/svg11.dtd"><svg t="1573732059042" class="icon" viewBox="0 0 1230 1024" version="1.1" xmlns="http://www.w3.org/2000/svg" p-id="1071" xmlns:xlink="http://www.w3.org/1999/xlink" width="240.234375" height="200"><defs><style type="text/css"></style></defs><path d="M1178.69341 1023.872311a51.075427 51.075427 0 0 1-51.075427-51.075427l-0.459679-4.724477c0-0.868282 0.204302-1.659951 0.255377-2.553771a357.987668 357.987668 0 0 0-204.965689-317.484854c-4.494638-6.409966-9.372341-12.487942-14.122355-18.642531a70.433014 70.433014 0 0 1-87.287905-68.951827l-0.638443-6.58873a70.841617 70.841617 0 0 1 1.430112-14.275582c-1.149197-0.970433-2.221781-2.017479-3.370978-2.962374l6.231202-6.231203a70.662853 70.662853 0 0 1 43.209811-43.209811l3.856195-3.881732A204.020793 204.020793 0 0 0 819.454394 109.341253c-1.813178-3.268827-4.13711-6.180127-6.026901-9.397879a47.985364 47.985364 0 0 1-21.170764 5.107543 48.521656 48.521656 0 0 1-48.521656-48.521656l-0.459679-4.494637A48.521656 48.521656 0 0 1 789.575269 3.742807l2.298394-2.272856a307.218694 307.218694 0 0 1 169.851333 546.328305c0.178764 2.043017 0.612905 4.034959 0.612905 6.154589a460.036371 460.036371 0 0 1 266.15405 407.122229 48.521656 48.521656 0 0 1 0.715056 6.997333l0.459679 4.724477a51.075427 51.075427 0 0 1-50.973276 51.075427z m-527.711312-472.4477a460.215135 460.215135 0 0 1 271.057291 409.650463 48.521656 48.521656 0 0 1 0.715056 6.997333l0.459679 4.724477a51.075427 51.075427 0 0 1-102.150854 0l-0.459679-4.724477c0-1.22581 0.280915-2.375007 0.357528-3.575279a358.447347 358.447347 0 0 0-329.104514-349.866676c-9.678793 0.919358-19.4342 1.481187-29.317295 1.481188s-19.664039-0.56183-29.317296-1.481188a358.651649 358.651649 0 0 0-329.436504 357.323688v0.178764h-0.995971v0.612905a51.075427 51.075427 0 0 1-102.150854 0l-0.459679-4.724477a50.845588 50.845588 0 0 1 1.685489-12.385791 460.291748 460.291748 0 0 1 271.772348-404.593995 307.93375 307.93375 0 1 1 377.345255 0.459679zM461.74764 102.599296a204.863538 204.863538 0 1 0 204.914614 205.042302 204.889076 204.889076 0 0 0-204.914614-204.965689z" p-id="1072"></path></svg>