<?xml version="1.0" standalone="no"?><!DOCTYPE svg PUBLIC "-//W3C//DTD SVG 1.1//EN" "http://www.w3.org/Graphics/SVG/1.1/DTD/svg11.dtd"><svg t="1574902606659" class="icon" viewBox="0 0 1072 1024" version="1.1" xmlns="http://www.w3.org/2000/svg" p-id="2180" xmlns:xlink="http://www.w3.org/1999/xlink" width="209.375" height="200"><defs><style type="text/css"></style></defs><path d="M1057.279808 548.106418a47.221004 47.221004 0 0 1-7.674052 5.499737l-198.681223 199.525368a51.160351 51.160351 0 0 1-72.366316-72.340736l117.157204-117.668807L357.38063 562.763858a51.160351 51.160351 0 1 1 0-102.320701l540.713747 0.409282-119.58732-120.226824a51.160351 51.160351 0 0 1 72.366316-72.366316l199.83233 200.753216a48.09073 48.09073 0 0 1 6.574105 4.37421 54.511354 54.511354 0 0 1 0 74.719693zM972.046664 256.543579a51.160351 51.160351 0 0 1-51.160351-51.160351v-10.564612c-1.50923-72.289576-20.259499-91.85841-100.197547-92.421174l-627.430541 0.332542c-75.154555 2.148735-89.760835 24.173266-89.760835 101.885839L102.320701 157.57388l0.332543 685.369639c3.862606 61.597062 25.580175 77.968375 103.139267 77.968374l-103.088107-0.665084v1.099947l818.565612-0.409283-0.204642-66.943318-0.460443 66.227074-103.216007 0.690664c83.08441 0 102.0649-19.133971 103.59971-92.523494v-10.564612a51.160351 51.160351 0 0 1 102.320701 0L1023.386076 869.725962H1023.207015v51.160351a102.320701 102.320701 0 0 1-102.320702 102.320702h-54.357873l-709.849866 0.358122V1023.207015H102.320701a102.09048 102.09048 0 0 1-101.860258-97.767431L0 101.911419A102.03932 102.03932 0 0 1 97.74185 0.460443L921.244436 0A102.320701 102.320701 0 0 1 1023.207015 102.320701v51.160351h0.179061L1023.207015 205.383228a51.160351 51.160351 0 0 1-51.160351 51.160351zM102.320701 102.781145v0.179061l31.438036-0.204642H102.320701zM834.246259 102.320701l86.307512 0.588344 0.460443 66.227075L921.218855 102.320701z" p-id="2181"></path></svg>