<?xml version="1.0" standalone="no"?><!DOCTYPE svg PUBLIC "-//W3C//DTD SVG 1.1//EN" "http://www.w3.org/Graphics/SVG/1.1/DTD/svg11.dtd"><svg t="1574477635620" class="icon" viewBox="0 0 1024 1024" version="1.1" xmlns="http://www.w3.org/2000/svg" p-id="1250" xmlns:xlink="http://www.w3.org/1999/xlink" width="200" height="200"><defs><style type="text/css"></style></defs><path d="M696.224799 495.494125a282.072737 282.072737 0 1 0-368.787676 0A512.423607 512.423607 0 0 0 0 972.816904a51.183096 51.183096 0 0 0 102.366192 0 409.814969 409.814969 0 0 1 393.705763-409.006815c5.387694 0.3502 10.39825 0.808154 15.759006 0.808154s10.506004-0.457954 15.759006-0.808154A409.895784 409.895784 0 0 1 921.29573 972.816904a51.183096 51.183096 0 0 0 102.366192 0 512.5583 512.5583 0 0 0-327.437123-477.322779z m-364.100382-213.083311a179.706544 179.706544 0 1 1 195.46555 178.925329c-5.387694 0-10.506004-0.3502-15.759006-0.3502s-10.506004 0.215508-15.759006 0.3502a179.841237 179.841237 0 0 1-163.947538-178.925329z" p-id="1251"></path></svg>