<?xml version="1.0" standalone="no"?><!DOCTYPE svg PUBLIC "-//W3C//DTD SVG 1.1//EN" "http://www.w3.org/Graphics/SVG/1.1/DTD/svg11.dtd"><svg t="1574299700620" class="icon" viewBox="0 0 1024 1024" version="1.1" xmlns="http://www.w3.org/2000/svg" p-id="1962" xmlns:xlink="http://www.w3.org/1999/xlink" width="200" height="200"><defs><style type="text/css"></style></defs><path d="M751.4 580c-12-7.9-27.7-6.9-38.6 2.4-53.3 45.5-119.8 74.9-195.2 74.9-76.6 0-143.8-30.2-201.8-76.9-10.4-8.4-25-9.3-36.5-2.5C158.7 650.2 75.4 744 65.1 902c-1.2 18.4 13.5 34 31.9 34h830c18.4 0 33.1-15.6 31.9-34-10.3-156.5-92.4-245.6-207.5-322z" p-id="1963"></path><path d="M511.9 88C378 88 271.1 200 271.1 333.5 271.1 472.2 383.5 579 512 579c133.8 0 241-112.1 241-245.5S645.9 88 511.9 88z m134.8 344c-13.7 23.7-32.9 43.6-55.7 57.6-23.9 14.7-51.3 22.4-79 22.4-54.6 0-106.2-30.7-134.7-80-8.8-15.3-3.6-34.9 11.7-43.7 15.3-8.8 34.9-3.6 43.7 11.7 17.1 29.6 47.5 48 79.3 48 32.3 0 61.9-17.9 79.2-48 8.8-15.3 28.4-20.6 43.7-11.7 15.4 8.8 20.6 28.4 11.8 43.7z" p-id="1964"></path></svg>