<?xml version="1.0" standalone="no"?><!DOCTYPE svg PUBLIC "-//W3C//DTD SVG 1.1//EN" "http://www.w3.org/Graphics/SVG/1.1/DTD/svg11.dtd"><svg t="1574902112565" class="icon" viewBox="0 0 1024 1024" version="1.1" xmlns="http://www.w3.org/2000/svg" p-id="32643" xmlns:xlink="http://www.w3.org/1999/xlink" width="200" height="200"><defs><style type="text/css"></style></defs><path d="M511.250625 604.722357a45.311588 45.311588 0 0 1-45.102135-46.545031L464.868501 274.624994a46.545031 46.545031 0 0 1 93.090063 0l-0.162908 283.575604a46.545031 46.545031 0 0 1-46.545031 46.521759z m50.012636 140.915083a50.035909 50.035909 0 0 1-100.071817 0l0.18618-1.512714a50.035909 50.035909 0 0 1 100.071817 0zM511.995345 1024a508.178653 508.178653 0 0 1-293.233697-93.299515 46.405396 46.405396 0 0 1-34.210598-44.683231l-0.418906-4.305415a46.405396 46.405396 0 0 1 80.592722-31.557531 420.534359 420.534359 0 1 0-132.653339-160.161453l-7.540295 7.540295a46.545031 46.545031 0 0 1 29.020827 43.077426l0.442177 4.328688a46.428669 46.428669 0 0 1-91.088626 12.776611A511.995345 511.995345 0 1 1 511.995345 1024z" p-id="32644"></path></svg>