<?xml version="1.0" standalone="no"?><!DOCTYPE svg PUBLIC "-//W3C//DTD SVG 1.1//EN" "http://www.w3.org/Graphics/SVG/1.1/DTD/svg11.dtd"><svg t="1574902096056" class="icon" viewBox="0 0 1024 1024" version="1.1" xmlns="http://www.w3.org/2000/svg" p-id="32525" xmlns:xlink="http://www.w3.org/1999/xlink" width="200" height="200"><defs><style type="text/css"></style></defs><path d="M232.050254 512.004655a46.545031 46.545031 0 0 1 46.545031-46.545032l352.252798 0.302543-108.752466-109.217916a46.545031 46.545031 0 0 1 65.837947-65.837947l180.315452 181.153262a48.872283 48.872283 0 0 1 7.098117 5.213043s0.255998 0.139635 0.37236 0.255998a45.753766 45.753766 0 0 1 16.639849 35.048409 46.545031 46.545031 0 0 1-28.951009 43.030881l-175.521314 176.335852a46.545031 46.545031 0 0 1-65.837947-65.814675l106.634667-107.053572L278.595285 558.549686a46.545031 46.545031 0 0 1-46.545031-46.545031zM511.995345 1024a508.178653 508.178653 0 0 1-293.233697-93.299515 46.405396 46.405396 0 0 1-34.210598-44.683231l-0.418906-4.328688a46.545031 46.545031 0 0 1 80.592722-31.534258 420.534359 420.534359 0 1 0-132.653339-160.161453l-7.540295 7.540295a46.545031 46.545031 0 0 1 29.020827 43.077426l0.442177 4.328688a46.428669 46.428669 0 0 1-91.088626 12.776611A511.995345 511.995345 0 1 1 511.995345 1024z" p-id="32526"></path></svg>