<?xml version="1.0" standalone="no"?><!DOCTYPE svg PUBLIC "-//W3C//DTD SVG 1.1//EN" "http://www.w3.org/Graphics/SVG/1.1/DTD/svg11.dtd"><svg t="1573732079364" class="icon" viewBox="0 0 1024 1024" version="1.1" xmlns="http://www.w3.org/2000/svg" p-id="1189" xmlns:xlink="http://www.w3.org/1999/xlink" width="200" height="200"><defs><style type="text/css"></style></defs><path d="M859.565199 1023.957364a163.446926 163.446926 0 0 1-124.45587-57.410014l-184.637254-183.46475A404.513554 404.513554 0 0 1 37.789785 235.4384a41.016289 41.016289 0 0 1 5.969106-12.385896c2.984553-5.905152 5.990425-11.788985 9.230797-17.502273l4.817922 4.519467a42.103519 42.103519 0 0 1 50.588177 6.395471l191.544363 192.738184L409.75039 298.519065l-191.096679-192.290501a42.274065 42.274065 0 0 1-7.887748-48.435036l-5.031104-5.009785c4.263647-2.387643 8.527295-4.540785 12.790942-6.7792a41.48529 41.48529 0 0 1 23.258197-11.149438A404.279053 404.279053 0 0 1 810.277434 405.110251c0 5.180332-0.532956 10.232754-0.767457 15.370449 0 0.746138 0.213182 1.470958 0.213183 2.131824l0.405046 3.965192a41.527926 41.527926 0 0 1-1.470958 10.488573c-0.127909 1.684141 0 3.410918-0.255819 5.095059l-1.001957-1.001957a42.401974 42.401974 0 0 1-80.199209-1.172503h-3.773328A320.455744 320.455744 0 0 0 404.228967 82.629275a315.978914 315.978914 0 0 0-78.557705 10.211436l165.919842 166.964434a15.626268 15.626268 0 0 0 8.207521 8.868387 42.636475 42.636475 0 0 1 0 60.287975l-169.92767 171.249401a42.636475 42.636475 0 0 1-60.287975 0 41.8477 41.8477 0 0 1-4.391557-6.608653 38.2236 38.2236 0 0 1-4.434194-2.963235l-166.90048-167.923756a316.042869 316.042869 0 0 0-10.957574 81.243802 320.86079 320.86079 0 0 0 485.629447 275.794037l61.822888 61.822889-0.319773 0.191864 72.482007 71.970369 9.721116 9.721116 85.976451 85.422177a41.080243 41.080243 0 0 1 2.323688 3.474873 78.600341 78.600341 0 0 0 59.179427 27.393935 79.644935 79.644935 0 0 0 79.644935-79.644935 78.877478 78.877478 0 0 0-16.287133-47.752851l3.496191-3.581464a41.570563 41.570563 0 0 1-18.099184-10.126163l-207.213267-205.891536a42.636475 42.636475 0 0 1 60.287975-60.287976l207.213267 205.870218a41.613199 41.613199 0 0 1 9.955617 17.05459l3.645419-3.730691a163.660108 163.660108 0 0 1-122.793047 272.297846z" p-id="1190"></path></svg>