<?xml version="1.0" standalone="no"?><!DOCTYPE svg PUBLIC "-//W3C//DTD SVG 1.1//EN" "http://www.w3.org/Graphics/SVG/1.1/DTD/svg11.dtd"><svg t="1574902791429" class="icon" viewBox="0 0 1126 1024" version="1.1" xmlns="http://www.w3.org/2000/svg" p-id="2416" xmlns:xlink="http://www.w3.org/1999/xlink" width="219.921875" height="200"><defs><style type="text/css"></style></defs><path d="M1105.063576 220.756913l-575.553946 578.111964a71.215208 71.215208 0 1 1-100.70915-100.683571l575.553945-578.111963A71.215208 71.215208 0 0 1 1105.063576 220.756913zM870.493368 102.320701l-676.928181 0.409283c-75.359197 2.123155-89.991057 24.096525-89.991057 101.885839L102.320701 157.625041l0.332543 685.369638c3.888187 61.545902 25.733656 77.917214 103.139267 77.917214l-103.088107-0.665084v1.099947l818.565612-0.409283-0.127901-94.95361-0.639505 94.237366-103.216007 0.690664c86.205191 0 103.59971-20.080438 103.855512-100.555669L920.886313 562.022033a51.160351 51.160351 0 0 1 102.320702 0L1023.565137 869.725962H1023.207015v51.160351a102.320701 102.320701 0 0 1-102.320702 102.320702h-54.357873l-709.849866 0.358122V1023.207015H102.320701a102.09048 102.09048 0 0 1-101.860258-97.767431L0 101.885838A102.03932 102.03932 0 0 1 97.74185 0.460443L870.467787 0a51.160351 51.160351 0 0 1 0 102.320701zM102.320701 102.781145v0.179061l32.282182-0.204642H102.320701z" p-id="2417"></path></svg>